<svg width="520" height="413" viewBox="0 0 520 413" fill="none" xmlns="http://www.w3.org/2000/svg">
<g clip-path="url(#clip0_2_9578)">
<path d="M70.8251 413C109.941 413 141.65 410.582 141.65 407.599C141.65 404.616 109.941 402.197 70.8251 402.197C31.7095 402.197 0 404.616 0 407.599C0 410.582 31.7095 413 70.8251 413Z" fill="#F2F2F2"/>
<path d="M128.321 149.897C132.324 145.824 137.673 144.588 140.262 147.135C142.852 149.683 141.71 155.049 137.706 159.123C136.128 160.771 134.179 162.018 132.02 162.759L114.845 179.806L107.015 171.577L124.781 155.648C125.485 153.477 126.699 151.505 128.322 149.899L128.321 149.897Z" fill="#ED9DA0"/>
<path d="M73.3831 135.829L91.3938 175.781L120.154 160.214L130.447 165.677C130.447 165.677 106.939 204.98 90.8379 200.505C74.7371 196.031 46.1541 155.463 51.3045 142.942C56.455 130.421 73.3844 135.828 73.3844 135.828L73.3831 135.829Z" fill="#6C63FF"/>
<path d="M65.4858 402.096H78.6187L84.866 351.446H65.4832L65.4858 402.096Z" fill="#ED9DA0"/>
<path d="M110.481 401.798C110.89 402.486 111.105 404.709 111.105 405.51C111.105 406.692 110.636 407.825 109.8 408.661C108.965 409.497 107.831 409.967 106.649 409.967H65.9773C65.578 409.967 65.1826 409.888 64.8137 409.735C64.4448 409.583 64.1096 409.359 63.8273 409.076C63.545 408.794 63.321 408.459 63.1682 408.09C63.0154 407.721 62.9367 407.326 62.9367 406.927V405.234C62.9367 405.234 60.9236 400.145 65.0668 393.87C65.0668 393.87 70.2153 398.781 77.9076 391.089L80.1759 386.98L96.5969 398.988L105.699 400.108C107.69 400.353 109.456 400.07 110.48 401.797L110.481 401.798Z" fill="#2F2E41"/>
<path d="M75.4235 138.392L75.6892 120.68L64.7661 113.872L52.8884 128.4L75.4235 138.392Z" fill="#ED9DA0"/>
<path d="M75.4579 126.192C86.1868 126.192 94.8843 117.495 94.8843 106.767C94.8843 96.0394 86.1868 87.3426 75.4579 87.3426C64.729 87.3426 56.0315 96.0394 56.0315 106.767C56.0315 117.495 64.729 126.192 75.4579 126.192Z" fill="#ED9DA0"/>
<path d="M101.951 255.51L83.8549 378.644H61.1503L64.1694 308.356L65.7585 271.398L61.1477 253.806C59.6844 251.004 58.3917 248.115 57.2766 245.156C55.2816 239.808 53.7048 233.395 56.0427 230.351C56.9032 229.23 59.141 228.403 62.1822 227.782C64.2842 227.374 66.4055 227.072 68.538 226.878C81.9645 225.549 101.063 226.379 101.063 226.379L101.549 242.4L101.818 251.346L101.951 255.51Z" fill="#2F2E41"/>
<path d="M42.3557 396.074L55.3491 397.983L68.8983 348.779L49.7213 345.961L42.3557 396.074Z" fill="#ED9DA0"/>
<path d="M86.9117 402.323C87.2163 403.064 87.1065 405.294 86.9896 406.09C86.8176 407.259 86.188 408.312 85.2395 409.018C84.2909 409.723 83.1009 410.023 81.9314 409.851L41.6941 403.932C41.2989 403.874 40.9191 403.739 40.5763 403.534C40.2334 403.33 39.9343 403.059 39.696 402.739C39.4576 402.418 39.2848 402.054 39.1873 401.667C39.0897 401.28 39.0695 400.877 39.1276 400.482L39.3737 398.806C39.3737 398.806 38.1236 393.482 43.1338 387.877C43.1338 387.877 47.5128 393.484 56.2428 386.993L59.0852 383.257L73.5846 397.526L82.4269 399.958C84.3615 400.49 86.1493 400.468 86.9117 402.323Z" fill="#2F2E41"/>
<path d="M102.236 234.974L99.7542 256.349L86.2179 301.39L63.9348 375.542L41.4744 372.241L61.6326 266.807L59.637 248.728C59.637 248.728 58.9876 246.931 58.2421 244.3C56.7634 239.095 54.908 230.619 56.9491 226.295C57.2036 225.732 57.5593 225.22 57.9986 224.785C58.8012 224.006 60.4325 223.533 62.6184 223.283C71.7543 222.25 90.569 225.204 98.9405 226.653L102.237 234.974L102.236 234.974Z" fill="#2F2E41"/>
<path d="M55.3862 124.654L77.455 135.246C77.455 135.246 100.848 204.537 100.848 208.067C100.848 211.598 107.469 213.805 103.496 217.777C99.5239 221.749 110.89 225.115 104.766 228.285C98.642 231.456 60.436 248.813 56.1902 247.247C44.4735 242.93 56.687 227.07 56.687 227.07C56.687 227.07 47.8829 219.979 49.2071 216.451C50.5312 212.923 41.2622 145.395 41.2622 145.395L55.3862 124.654Z" fill="#6C63FF"/>
<path d="M74.2709 111.42L76.7698 116.42C76.7698 116.42 79.2687 107.426 83.2639 105.427C87.2591 103.428 87.7617 100.427 87.7617 100.427C87.7617 100.427 92.7621 106.921 96.2573 105.427C99.7524 103.934 101.258 102.928 97.2567 96.9323C93.2557 90.9362 94.2584 93.9342 94.2584 93.9342C94.2584 93.9342 90.76 88.9342 91.2601 90.4362C91.7601 91.9381 88.2617 86.4387 88.2617 87.9374C88.2617 89.4362 85.7628 84.9394 85.7628 86.4381C85.7628 87.9368 75.2684 82.94 76.7679 84.9387C78.2674 86.9374 67.7716 80.9394 62.7777 88.9323C57.7837 96.9251 50.8513 95.4485 53.3164 100.436C55.7816 105.423 54.7835 118.916 54.7835 118.916H61.6737C61.6737 118.916 68.7743 105.424 74.2722 111.42H74.2709Z" fill="#090814"/>
<path d="M515.498 203.7H229.797C228.604 203.699 227.459 203.224 226.615 202.381C225.771 201.537 225.297 200.392 225.295 199.199V74.9646C225.297 73.7712 225.771 72.627 226.615 71.7831C227.459 70.9392 228.604 70.4645 229.797 70.4633H515.498C516.692 70.4645 517.836 70.9392 518.68 71.7831C519.524 72.627 519.999 73.7712 520 74.9646V199.198C519.999 200.392 519.524 201.536 518.68 202.38C517.836 203.224 516.692 203.699 515.498 203.7ZM229.797 72.264C229.081 72.2648 228.395 72.5497 227.888 73.0559C227.382 73.5622 227.097 74.2486 227.096 74.9646V199.198C227.097 199.914 227.382 200.601 227.888 201.107C228.395 201.613 229.081 201.898 229.797 201.899H515.498C516.214 201.898 516.901 201.613 517.407 201.107C517.914 200.601 518.198 199.914 518.199 199.198V74.9646C518.198 74.2486 517.914 73.5622 517.407 73.0559C516.901 72.5497 516.214 72.2648 515.498 72.264H229.797Z" fill="#E6E6E6"/>
<path d="M241.501 85.7673C240.785 85.7673 240.098 86.0518 239.591 86.5583C239.085 87.0647 238.8 87.7517 238.8 88.4679C238.8 89.1842 239.085 89.8711 239.591 90.3776C240.098 90.8841 240.785 91.1686 241.501 91.1686H279.314C280.031 91.1686 280.718 90.8841 281.224 90.3776C281.731 89.8711 282.015 89.1842 282.015 88.4679C282.015 87.7517 281.731 87.0647 281.224 86.5583C280.718 86.0518 280.031 85.7673 279.314 85.7673H241.501Z" fill="#E6E6E6"/>
<path d="M500.367 104.55V154.631H245.378V128.264C247.144 127.13 248.92 126.001 250.712 124.91C258.368 120.226 266.558 115.845 275.491 114.222C279.715 113.434 284.043 113.38 288.285 114.062C292.765 114.802 297.052 116.346 301.301 117.893C305.488 119.427 309.686 121.01 314.066 121.896C318.334 122.734 322.715 122.82 327.013 122.151C335.211 120.921 342.915 117.627 350.586 114.646C358.305 111.649 366.259 108.817 374.614 108.445C382.862 108.072 391.007 110.02 398.833 112.437C414.788 117.36 431.08 124.664 447.974 119.654C465.129 114.577 480.909 99.9141 499.922 104.265C500.101 104.298 500.262 104.399 500.37 104.547L500.367 104.55Z" fill="#F2F2F2"/>
<path d="M500.368 105.423C500.287 105.576 500.156 105.697 499.998 105.766C499.839 105.836 499.662 105.85 499.495 105.806C497.23 105.287 494.909 105.047 492.585 105.092C473.882 105.422 459.506 120.475 441.217 122.727C424.731 124.755 409.213 116.739 393.712 112.55C385.659 110.373 377.353 109.218 369.065 110.697C360.84 112.161 353.121 115.525 345.37 118.512C337.907 121.386 330.151 124.058 322.07 124.191C313.186 124.34 305.186 120.678 296.944 117.888C292.658 116.435 288.261 115.286 283.721 115.173C279.295 115.12 274.891 115.802 270.689 117.191C261.932 119.975 254.043 124.936 246.361 129.865C246.229 129.958 246.068 130.002 245.907 129.988C245.741 129.965 245.586 129.893 245.462 129.781C245.338 129.668 245.251 129.521 245.213 129.358C245.175 129.195 245.188 129.025 245.249 128.869C245.31 128.713 245.417 128.58 245.556 128.486L245.907 128.263C247.669 127.129 249.442 126.001 251.232 124.91C258.871 120.225 267.048 115.845 275.959 114.221C280.173 113.434 284.492 113.38 288.724 114.062C293.196 114.801 297.476 116.345 301.712 117.893C305.891 119.426 310.081 121.01 314.451 121.895C318.71 122.733 323.083 122.819 327.371 122.151C335.554 120.921 343.24 117.626 350.895 114.645C358.598 111.649 366.535 108.817 374.872 108.444C383.102 108.071 391.23 110.019 399.039 112.436C414.961 117.36 431.219 124.663 448.078 119.654C465.198 114.576 480.945 99.9134 499.917 104.264C500.097 104.297 500.257 104.398 500.365 104.546C500.448 104.677 500.493 104.829 500.493 104.984C500.494 105.139 500.45 105.292 500.368 105.423Z" fill="#6C63FF"/>
<path d="M280.512 118.437C282.57 118.437 284.239 116.769 284.239 114.711C284.239 112.653 282.57 110.985 280.512 110.985C278.454 110.985 276.786 112.653 276.786 114.711C276.786 116.769 278.454 118.437 280.512 118.437Z" fill="#6C63FF"/>
<path d="M374.736 113.647C376.794 113.647 378.462 111.978 378.462 109.921C378.462 107.863 376.794 106.195 374.736 106.195C372.678 106.195 371.01 107.863 371.01 109.921C371.01 111.978 372.678 113.647 374.736 113.647Z" fill="#6C63FF"/>
<path d="M478.422 117.482C480.48 117.482 482.149 115.814 482.149 113.756C482.149 111.699 480.48 110.03 478.422 110.03C476.364 110.03 474.696 111.699 474.696 113.756C474.696 115.814 476.364 117.482 478.422 117.482Z" fill="#6C63FF"/>
<path d="M278.414 175.792C277.698 175.792 277.011 176.076 276.504 176.583C275.998 177.089 275.713 177.776 275.713 178.492C275.713 179.209 275.998 179.896 276.504 180.402C277.011 180.909 277.698 181.193 278.414 181.193H316.227C316.944 181.193 317.631 180.909 318.137 180.402C318.644 179.896 318.928 179.209 318.928 178.492C318.928 177.776 318.644 177.089 318.137 176.583C317.631 176.076 316.944 175.792 316.227 175.792H278.414Z" fill="#E6E6E6"/>
<path d="M254.106 188.395C259.741 188.395 264.309 183.827 264.309 178.192C264.309 172.558 259.741 167.99 254.106 167.99C248.47 167.99 243.902 172.558 243.902 178.192C243.902 183.827 248.47 188.395 254.106 188.395Z" fill="#6C63FF"/>
<path d="M369.646 175.792C368.93 175.792 368.243 176.076 367.737 176.583C367.23 177.089 366.946 177.776 366.946 178.492C366.946 179.209 367.23 179.896 367.737 180.402C368.243 180.909 368.93 181.193 369.646 181.193H407.46C408.176 181.193 408.863 180.909 409.369 180.402C409.876 179.896 410.16 179.209 410.16 178.492C410.16 177.776 409.876 177.089 409.369 176.583C408.863 176.076 408.176 175.792 407.46 175.792H369.646Z" fill="#E6E6E6"/>
<path d="M345.338 188.395C350.973 188.395 355.541 183.827 355.541 178.192C355.541 172.558 350.973 167.99 345.338 167.99C339.703 167.99 335.134 172.558 335.134 178.192C335.134 183.827 339.703 188.395 345.338 188.395Z" fill="#6C63FF"/>
<path d="M460.879 175.792C460.163 175.792 459.476 176.076 458.969 176.583C458.463 177.089 458.178 177.776 458.178 178.492C458.178 179.209 458.463 179.896 458.969 180.402C459.476 180.909 460.163 181.193 460.879 181.193H498.692C499.409 181.193 500.095 180.909 500.602 180.402C501.109 179.896 501.393 179.209 501.393 178.492C501.393 177.776 501.109 177.089 500.602 176.583C500.095 176.076 499.409 175.792 498.692 175.792H460.879Z" fill="#E6E6E6"/>
<path d="M436.57 188.395C442.206 188.395 446.774 183.827 446.774 178.192C446.774 172.558 442.206 167.99 436.57 167.99C430.935 167.99 426.367 172.558 426.367 178.192C426.367 183.827 430.935 188.395 436.57 188.395Z" fill="#6C63FF"/>
<path d="M270.263 37.7157H129.308C126.561 37.7157 124.334 36.1294 124.331 34.1748V3.54157C124.331 1.58701 126.561 0.000640869 129.308 0.000640869H270.263C273.011 0.000640869 275.237 1.58701 275.241 3.54157V34.1742C275.238 36.1287 273.011 37.7132 270.263 37.7157ZM129.308 1.41557C127.659 1.41557 126.321 2.36753 126.321 3.54026V34.1729C126.321 35.3456 127.659 36.2963 129.308 36.2976H270.263C271.912 36.2976 273.25 35.3456 273.25 34.1729V3.54157C273.25 2.36884 271.912 1.41818 270.263 1.41688L129.308 1.41557Z" fill="#E6E6E6"/>
<path d="M161.18 17.4091C160.384 17.4102 159.622 17.7267 159.059 18.2892C158.496 18.8517 158.18 19.6143 158.179 20.4098V41.4158C158.18 42.2113 158.496 42.9739 159.059 43.5364C159.622 44.0989 160.384 44.4154 161.18 44.4164H268.618C269.414 44.4154 270.176 44.0989 270.739 43.5364C271.301 42.9739 271.618 42.2113 271.619 41.4158V20.4098C271.618 19.6143 271.301 18.8517 270.739 18.2892C270.176 17.7267 269.414 17.4102 268.618 17.4091H161.18Z" fill="#6C63FF"/>
<path d="M176.186 37.8151C179.832 37.8151 182.788 34.8593 182.788 31.2131C182.788 27.567 179.832 24.6111 176.186 24.6111C172.539 24.6111 169.583 27.567 169.583 31.2131C169.583 34.8593 172.539 37.8151 176.186 37.8151Z" fill="white"/>
<path d="M206.275 28.3469C205.559 28.3469 204.872 28.6314 204.366 29.1379C203.859 29.6444 203.574 30.3313 203.574 31.0476C203.574 31.7638 203.859 32.4507 204.366 32.9572C204.872 33.4637 205.559 33.7482 206.275 33.7482H244.088C244.805 33.7482 245.492 33.4637 245.998 32.9572C246.505 32.4507 246.789 31.7638 246.789 31.0476C246.789 30.3313 246.505 29.6444 245.998 29.1379C245.492 28.6314 244.805 28.3469 244.088 28.3469H206.275Z" fill="white"/>
<path d="M339.695 272.062H198.74C195.993 272.062 193.766 270.476 193.763 268.521V237.888C193.763 235.934 195.993 234.347 198.74 234.347H339.695C342.443 234.347 344.67 235.934 344.673 237.888V268.521C344.67 270.475 342.443 272.06 339.695 272.062ZM198.74 235.762C197.092 235.762 195.753 236.714 195.753 237.887V268.519C195.753 269.692 197.091 270.643 198.74 270.644H339.695C341.344 270.644 342.682 269.692 342.682 268.519V237.888C342.682 236.715 341.345 235.765 339.695 235.763L198.74 235.762Z" fill="#E6E6E6"/>
<path d="M230.613 251.756C229.817 251.757 229.054 252.074 228.492 252.636C227.929 253.199 227.613 253.961 227.612 254.757V275.763C227.613 276.558 227.929 277.321 228.492 277.884C229.054 278.446 229.817 278.763 230.613 278.764H338.051C338.846 278.763 339.609 278.446 340.172 277.884C340.734 277.321 341.051 276.558 341.052 275.763V254.757C341.051 253.961 340.734 253.199 340.172 252.636C339.609 252.074 338.846 251.757 338.051 251.756H230.613Z" fill="#6C63FF"/>
<path d="M245.618 272.162C249.264 272.162 252.22 269.206 252.22 265.56C252.22 261.914 249.264 258.958 245.618 258.958C241.971 258.958 239.015 261.914 239.015 265.56C239.015 269.206 241.971 272.162 245.618 272.162Z" fill="white"/>
<path d="M275.707 262.694C274.991 262.694 274.304 262.979 273.798 263.485C273.291 263.992 273.007 264.678 273.007 265.395C273.007 266.111 273.291 266.798 273.798 267.304C274.304 267.811 274.991 268.095 275.707 268.095H313.521C314.237 268.095 314.924 267.811 315.43 267.304C315.937 266.798 316.221 266.111 316.221 265.395C316.221 264.678 315.937 263.992 315.43 263.485C314.924 262.979 314.237 262.694 313.521 262.694H275.707Z" fill="white"/>
<path d="M149.309 205.469L117.697 182.481C117.15 182.082 116.783 181.482 116.678 180.813C116.572 180.143 116.736 179.46 117.134 178.911C118.764 164.337 132.054 150.066 148.434 135.875C148.833 135.328 149.433 134.961 150.102 134.855C150.771 134.75 151.455 134.914 152.004 135.312L183.613 158.3C184.161 158.699 184.528 159.299 184.633 159.968C184.739 160.638 184.575 161.321 184.177 161.87C170.889 175.368 160.235 189.648 152.879 204.905C152.48 205.452 151.88 205.819 151.21 205.924C150.541 206.03 149.857 205.866 149.309 205.469Z" fill="#E6E6E6"/>
<path d="M182.184 159.439L172.562 152.442C166.694 148.201 159.386 146.455 152.235 147.584C145.084 148.713 138.67 152.625 134.395 158.467L119.083 179.516C118.856 179.828 118.763 180.217 118.822 180.598C118.882 180.979 119.091 181.32 119.402 181.548L149.951 203.76C150.263 203.986 150.652 204.079 151.033 204.018C151.414 203.958 151.755 203.749 151.982 203.437C158.264 187.696 168.743 173.843 182.505 161.468C182.731 161.156 182.824 160.768 182.764 160.387C182.704 160.007 182.495 159.666 182.184 159.439Z" fill="white"/>
<path d="M144.211 189.434L137.944 184.877C137.862 184.817 137.769 184.774 137.67 184.75C137.571 184.727 137.468 184.722 137.368 184.738C137.267 184.754 137.171 184.79 137.084 184.843C136.997 184.896 136.922 184.966 136.862 185.048C136.802 185.13 136.759 185.223 136.735 185.322C136.712 185.421 136.708 185.524 136.723 185.624C136.739 185.725 136.775 185.821 136.828 185.908C136.881 185.995 136.951 186.07 137.033 186.13L143.299 190.687C143.465 190.808 143.673 190.858 143.876 190.826C144.079 190.794 144.261 190.682 144.381 190.516C144.502 190.35 144.552 190.142 144.52 189.94C144.488 189.737 144.377 189.555 144.211 189.434Z" fill="#CCCCCC"/>
<path d="M154.056 191.324L140.294 181.317C140.128 181.196 139.921 181.146 139.718 181.178C139.515 181.21 139.333 181.321 139.212 181.488C139.091 181.654 139.041 181.861 139.073 182.064C139.105 182.267 139.216 182.449 139.383 182.57L153.144 192.577C153.31 192.698 153.518 192.748 153.721 192.716C153.924 192.684 154.105 192.573 154.226 192.406C154.347 192.24 154.397 192.033 154.365 191.83C154.333 191.627 154.222 191.445 154.056 191.324Z" fill="#CCCCCC"/>
<path d="M130.723 174.74C128.014 175.517 126.447 178.343 127.224 181.052C128.001 183.762 130.827 185.328 133.537 184.551C136.246 183.775 137.813 180.948 137.036 178.239C136.259 175.53 133.433 173.963 130.723 174.74Z" fill="#6C63FF"/>
<path d="M151.668 180.981L134.765 168.688C134.599 168.592 134.403 168.561 134.215 168.601C134.027 168.642 133.86 168.75 133.747 168.905C133.634 169.06 133.583 169.252 133.602 169.443C133.622 169.634 133.712 169.811 133.854 169.941L150.756 182.235C150.923 182.331 151.12 182.362 151.308 182.322C151.496 182.282 151.663 182.173 151.776 182.018C151.889 181.862 151.941 181.67 151.921 181.479C151.901 181.287 151.811 181.11 151.668 180.981Z" fill="#CCCCCC"/>
<path d="M160.724 182.297L137.132 165.142C136.966 165.042 136.768 165.009 136.577 165.048C136.387 165.087 136.218 165.195 136.104 165.352C135.989 165.509 135.938 165.704 135.959 165.897C135.98 166.09 136.073 166.268 136.219 166.396L159.812 183.551C159.979 183.647 160.176 183.678 160.364 183.638C160.552 183.598 160.719 183.49 160.832 183.334C160.945 183.178 160.997 182.986 160.977 182.795C160.957 182.603 160.867 182.426 160.724 182.297Z" fill="#CCCCCC"/>
<path d="M157.845 172.487L140.943 160.193C140.776 160.098 140.58 160.067 140.392 160.107C140.204 160.147 140.038 160.256 139.925 160.411C139.812 160.566 139.76 160.758 139.78 160.949C139.8 161.14 139.889 161.317 140.032 161.446L156.934 173.741C157.101 173.837 157.297 173.868 157.486 173.828C157.674 173.788 157.841 173.679 157.954 173.524C158.067 173.368 158.119 173.176 158.099 172.985C158.078 172.793 157.988 172.616 157.845 172.487Z" fill="#CCCCCC"/>
<path d="M173.641 165.844L156.739 153.551C156.572 153.455 156.376 153.424 156.188 153.465C156 153.505 155.834 153.613 155.721 153.768C155.608 153.924 155.556 154.115 155.576 154.306C155.596 154.498 155.685 154.675 155.828 154.804L172.73 167.098C172.897 167.194 173.093 167.225 173.282 167.185C173.47 167.145 173.637 167.037 173.75 166.881C173.863 166.725 173.914 166.533 173.894 166.342C173.874 166.15 173.784 165.973 173.641 165.844Z" fill="#6C63FF"/>
<path d="M166.901 173.803L143.31 156.648C143.143 156.548 142.945 156.515 142.755 156.554C142.565 156.593 142.396 156.701 142.281 156.858C142.167 157.015 142.115 157.209 142.137 157.403C142.158 157.596 142.251 157.774 142.396 157.902L165.99 175.057C166.157 175.153 166.353 175.184 166.542 175.144C166.73 175.104 166.897 174.996 167.01 174.84C167.123 174.684 167.174 174.492 167.154 174.301C167.134 174.109 167.044 173.932 166.901 173.803Z" fill="#CCCCCC"/>
<path d="M122.632 185.709C128.109 184.09 133.383 185.605 134.413 189.091C135.442 192.576 131.836 196.712 126.36 198.33C124.18 199.006 121.87 199.151 119.623 198.752L96.3299 205.314L93.4829 194.318L116.748 189.016C118.418 187.46 120.437 186.326 122.635 185.709L122.632 185.709Z" fill="#ED9DA0"/>
<path d="M81.4326 146.741L77.7816 190.413L110.483 190.764L116.83 200.536C116.83 200.536 77.1933 223.484 65.2916 211.759C53.3899 200.033 48.0952 150.689 58.6767 142.242C69.2581 133.794 81.4326 146.74 81.4326 146.74V146.741Z" fill="#6C63FF"/>
</g>
<defs>
<clipPath id="clip0_2_9578">
<rect width="520" height="413" fill="white"/>
</clipPath>
</defs>
</svg>
